<svg id="图层_1" data-name="图层 1" xmlns="http://www.w3.org/2000/svg" viewBox="0 0 16 16"><defs><style>.cls-1{fill:#333;}</style></defs><title>物流图标</title><path class="cls-1" d="M13.73,5A2.68,2.68,0,0,0,11.2,3C8,3,8.89,4.87,10.09,6.52l.14.19A4.81,4.81,0,0,1,8,8,4.81,4.81,0,0,1,5.78,6.71l.14-.19C7.11,4.87,8,3,4.8,3A2.69,2.69,0,0,0,2.27,5c-.84,3,.43,6.28,1.65,7,2.09,1.23,2.47-.18,2-1.69A10.87,10.87,0,0,1,5.48,8,6.13,6.13,0,0,1,7,9c1,1,0,2,0,3,0,.5,0,1,1,1s1-.5,1-1c0-1-1-2,0-3a6.13,6.13,0,0,1,1.52-1,10.87,10.87,0,0,1-.42,2.29c-.49,1.5-.11,2.92,2,1.69C13.3,11.28,14.57,8,13.73,5Z"/></svg>