<svg id="图层_1" data-name="图层 1" xmlns="http://www.w3.org/2000/svg" viewBox="0 0 16 16"><defs><style>.cls-1{fill:#333;}</style></defs><title>物流图标</title><path class="cls-1" d="M9.3,6.2C8.2,4.07,6.84,2,6.84,2S3,7.85,3,10a3.9,3.9,0,0,0,3.84,4,3.73,3.73,0,0,0,1.37-.26,3.5,3.5,0,0,1-1.09-2.54C7.12,9.92,8.5,7.5,9.3,6.2ZM6.81,12.94A2.83,2.83,0,0,1,4,10.07a.21.21,0,1,1,.41,0,2.41,2.41,0,0,0,2.37,2.45.21.21,0,0,1,0,.43Z"/><path class="cls-1" d="M10.48,5.91S8,9.75,8,11.19a2.52,2.52,0,1,0,5,0C13,9.75,10.48,5.91,10.48,5.91Zm0,7.27a1.93,1.93,0,0,1-1.9-2,.21.21,0,1,1,.41,0,1.51,1.51,0,0,0,1.49,1.53.21.21,0,0,1,0,.43Z"/></svg>